<?xml version="1.0" standalone="no"?>
<svg viewBox="0 0 200 200" xmlns="http://www.w3.org/2000/svg">
  <path fill="#D0E2FF" d="M37.7,-66C48.9,-58.8,58,-48.8,67.9,-37.3C77.7,-25.9,88.3,-12.9,89,0.4C89.7,13.8,80.7,27.6,71.2,39.7C61.8,51.9,52,62.4,40,68.8C28.1,75.2,14,77.4,-0.4,78.1C-14.9,78.8,-29.7,78,-42.6,72.2C-55.5,66.4,-66.5,55.5,-73,42.7C-79.5,29.8,-81.7,14.9,-82.4,-0.4C-83.2,-15.8,-82.6,-31.6,-75.9,-44.2C-69.3,-56.9,-56.6,-66.4,-42.9,-72.2C-29.2,-78,-14.6,-80,-0.7,-78.8C13.2,-77.6,26.5,-73.2,37.7,-66Z" transform="translate(100 100)" />
</svg>
